<svg xmlns="http://www.w3.org/2000/svg" width="19.657" height="13" viewBox="0 0 19.657 13">
  <g id="filter-2-line" transform="translate(-7.134 -17.921)">
    <path id="合体_3" data-name="合体 3"
        d="M-1701.379-1713.717l.009.031h-1.774a.894.894,0,0,1-.894-.894.894.894,0,0,1,.894-.893h1.774l-.02.068a3,3,0,0,1,2.885-2.175,3,3,0,0,1,2.886,2.176l-.021-.069h10.365a.894.894,0,0,1,.894.893.894.894,0,0,1-.894.894h-10.365a3,3,0,0,0,.129-.7,3,3,0,0,1-2.995,2.807A3,3,0,0,1-1701.379-1713.717Zm1.375-.862a1.5,1.5,0,0,0,1.5,1.5,1.5,1.5,0,0,0,1.5-1.5,1.5,1.5,0,0,0-1.5-1.5A1.5,1.5,0,0,0-1700-1714.579Zm-1.38.842v0Zm5.875-.651c0-.011,0-.023,0-.034C-1695.509-1714.411-1695.51-1714.4-1695.511-1714.388Zm-5.989-.018s0,0,0,0S-1701.5-1714.408-1701.5-1714.406Zm5.992-.021c0-.012,0-.023,0-.035C-1695.507-1714.45-1695.508-1714.439-1695.508-1714.427Zm-5.993-.008s0-.008,0-.012S-1701.5-1714.439-1701.5-1714.435Zm5.995-.029q0-.018,0-.036Q-1695.506-1714.481-1695.507-1714.464Zm-6-.008c0-.009,0-.017,0-.026C-1701.5-1714.488-1701.5-1714.48-1701.5-1714.471Zm6-.036c0-.009,0-.018,0-.028C-1695.505-1714.525-1695.505-1714.516-1695.505-1714.507Zm-6,0v0Zm6-.034c0-.012,0-.023,0-.035C-1695.5-1714.568-1695.5-1714.556-1695.5-1714.544Zm-6,0c0-.011,0-.023,0-.035C-1701.5-1714.568-1701.5-1714.556-1701.5-1714.545Zm6-.035c0-.012,0-.023,0-.035C-1695.5-1714.6-1695.5-1714.591-1695.5-1714.579Zm-6,0c0-.012,0-.023,0-.035C-1701.5-1714.6-1701.5-1714.591-1701.5-1714.579Zm0-.045c0-.009,0-.018,0-.027C-1701.5-1714.642-1701.5-1714.633-1701.5-1714.624Zm6,0c0-.008,0-.017,0-.025C-1695.505-1714.641-1695.505-1714.633-1695.505-1714.625Zm-6-.036c0-.011,0-.023,0-.035C-1701.5-1714.683-1701.5-1714.672-1701.5-1714.66Zm6,0c0-.009,0-.018,0-.027C-1695.506-1714.679-1695.506-1714.67-1695.506-1714.661Zm-6-.037c0-.01,0-.02,0-.031C-1701.5-1714.718-1701.5-1714.708-1701.5-1714.7Zm6-.01v0Zm-5.993-.033c0-.008,0-.015,0-.023C-1701.5-1714.756-1701.5-1714.749-1701.5-1714.741Zm5.991,0v0Zm-5.989-.031q0-.016,0-.032Q-1701.5-1714.792-1701.5-1714.776Zm0-.044c0-.007,0-.014,0-.021S-1701.495-1714.827-1701.5-1714.82Zm0-.038v0Zm0-.035v0Zm.005-.047,0-.013Zm0-.033v0Zm.012-.083v0Zm.005-.03v0Zm.021-.112v0Zm.017-.078,0-.009Zm.007-.029,0-.013Zm.008-.031.008-.029Zm.009-.033.008-.03Zm5.789-.008-.006-.022Z"
        transform="translate(1711.172 1735.5)" fill="#404031" />
    <path id="合体_4" data-name="合体 4"
        d="M-1692.889-1714.2a3,3,0,0,0,.111.51h-10.365a.894.894,0,0,1-.894-.894.894.894,0,0,1,.894-.893h10.365q-.011.035-.021.071a3,3,0,0,1,2.887-2.178,3,3,0,0,1,2.875,2.142l-.011-.036h1.774a.9.9,0,0,1,.894.893.9.9,0,0,1-.894.894h-1.774l.009-.03a3,3,0,0,1-2.874,2.137A3,3,0,0,1-1692.889-1714.2Zm1.476-.384a1.5,1.5,0,0,0,1.5,1.5,1.5,1.5,0,0,0,1.5-1.5,1.5,1.5,0,0,0-1.5-1.5A1.5,1.5,0,0,0-1691.413-1714.579Zm-1.476.381c0-.024-.006-.048-.008-.072C-1692.9-1714.246-1692.893-1714.222-1692.89-1714.2Zm-.009-.079c0-.009,0-.018,0-.027C-1692.9-1714.3-1692.9-1714.287-1692.9-1714.278Zm0-.036c0-.011,0-.021,0-.032C-1692.9-1714.336-1692.9-1714.325-1692.9-1714.314Zm0-.035c0-.012,0-.023,0-.035C-1692.906-1714.372-1692.906-1714.36-1692.9-1714.349Zm0-.044v0Zm5.99-.014v0Zm-5.992-.022c0-.011,0-.022,0-.032C-1692.911-1714.451-1692.91-1714.44-1692.91-1714.429Zm5.993-.005s0-.007,0-.011S-1686.917-1714.438-1686.917-1714.435Zm-5.995-.029v0Zm6-.012v0Zm-6-.032c0-.009,0-.018,0-.027C-1692.913-1714.526-1692.913-1714.517-1692.913-1714.508Zm6,0c0-.008,0-.016,0-.024C-1686.914-1714.526-1686.914-1714.518-1686.914-1714.51Zm-6-.034c0-.012,0-.023,0-.035C-1692.914-1714.568-1692.913-1714.556-1692.913-1714.544Zm6,0c0-.011,0-.023,0-.035C-1686.913-1714.568-1686.913-1714.556-1686.913-1714.545Zm0-.035c0-.012,0-.023,0-.035C-1686.913-1714.6-1686.913-1714.591-1686.913-1714.579Zm-6,0c0-.012,0-.023,0-.035C-1692.913-1714.6-1692.914-1714.591-1692.914-1714.579Zm0-.045c0-.008,0-.017,0-.025C-1692.913-1714.641-1692.913-1714.633-1692.913-1714.624Zm6,0c0-.009,0-.017,0-.026C-1686.914-1714.642-1686.914-1714.633-1686.914-1714.624Zm0-.036c0-.011,0-.022,0-.034C-1686.915-1714.683-1686.915-1714.671-1686.914-1714.66Zm-6,0v0Zm6-.041v0Zm-6,0c0-.007,0-.015,0-.022S-1692.911-1714.712-1692.911-1714.7Zm5.993-.036c0-.007,0-.015,0-.022S-1686.918-1714.748-1686.918-1714.741Zm-5.991,0s0-.009,0-.014S-1692.909-1714.749-1692.909-1714.744Zm5.989-.032c0-.009,0-.017,0-.026C-1686.921-1714.793-1686.92-1714.785-1686.92-1714.776Zm-5.987,0h0Zm5.984-.044v0Zm0-.035v0Zm0-.034v0Zm-.006-.05v0Zm0-.033v0Zm-.012-.085v0Zm0-.029v0Zm-.015-.083h0Zm-.005-.027v0Zm-.018-.081v0Zm-.006-.027,0-.01Zm-.007-.03,0-.017Zm-5.8-.036.008-.029Zm5.788,0-.006-.022Zm-.009-.031-.008-.029Z"
        transform="translate(1711.172 1742.5)" fill="#404031" />
  </g>
</svg>
