<svg xmlns="http://www.w3.org/2000/svg" width="12.166" height="16.729" viewBox="0 0 12.166 16.729">
    <path id="パス_19" data-name="パス 19"
        d="M12.166,10.646a.731.731,0,0,1-.226.535L6.618,16.5a.746.746,0,0,1-1.069,0L.226,11.18a.746.746,0,0,1,0-1.069A.731.731,0,0,1,.76,9.885H11.406a.771.771,0,0,1,.76.76Zm0-4.562a.771.771,0,0,1-.76.76H.76a.731.731,0,0,1-.535-.226.746.746,0,0,1,0-1.069L5.549.226a.746.746,0,0,1,1.069,0l5.323,5.323A.731.731,0,0,1,12.166,6.083Z"
        fill="#404033" />
</svg>
